<mxfile host="Electron" modified="2024-05-26T09:05:31.899Z" agent="Mozilla/5.0 (Windows NT 10.0; Win64; x64) AppleWebKit/537.36 (KHTML, like Gecko) draw.io/22.1.2 Chrome/114.0.5735.289 Electron/25.9.4 Safari/537.36" etag="Er587DTa5GyLpZD95zie" version="22.1.2" type="device">
  <diagram name="第 1 页" id="yzPtjnCiJVvBwG1abhm2">
    <mxGraphModel dx="491" dy="503" grid="1" gridSize="10" guides="1" tooltips="1" connect="1" arrows="1" fold="1" page="1" pageScale="1" pageWidth="100000" pageHeight="100000" math="0" shadow="0">
      <root>
        <mxCell id="0" />
        <mxCell id="1" parent="0" />
        <mxCell id="akxVUTVavI8f1xCOiwu0-1" value="std::bad_alloc" style="whiteSpace=wrap;html=1;sketch=1;curveFitting=1;jiggle=2;fontFamily=Comic Sans MS;" vertex="1" parent="1">
          <mxGeometry x="240" y="160" width="120" height="40" as="geometry" />
        </mxCell>
        <mxCell id="akxVUTVavI8f1xCOiwu0-2" value="std::exception" style="whiteSpace=wrap;html=1;sketch=1;curveFitting=1;jiggle=2;fontFamily=Comic Sans MS;" vertex="1" parent="1">
          <mxGeometry x="80" y="310" width="120" height="40" as="geometry" />
        </mxCell>
        <mxCell id="akxVUTVavI8f1xCOiwu0-3" value="std::bad_cast" style="whiteSpace=wrap;html=1;sketch=1;curveFitting=1;jiggle=2;fontFamily=Comic Sans MS;" vertex="1" parent="1">
          <mxGeometry x="240" y="220" width="120" height="40" as="geometry" />
        </mxCell>
        <mxCell id="akxVUTVavI8f1xCOiwu0-4" value="std::bad_typeid" style="whiteSpace=wrap;html=1;sketch=1;curveFitting=1;jiggle=2;fontFamily=Comic Sans MS;" vertex="1" parent="1">
          <mxGeometry x="240" y="280" width="120" height="40" as="geometry" />
        </mxCell>
        <mxCell id="akxVUTVavI8f1xCOiwu0-5" value="std::bad_exception" style="whiteSpace=wrap;html=1;sketch=1;curveFitting=1;jiggle=2;fontFamily=Comic Sans MS;" vertex="1" parent="1">
          <mxGeometry x="240" y="340" width="120" height="40" as="geometry" />
        </mxCell>
        <mxCell id="akxVUTVavI8f1xCOiwu0-6" value="std::logic_error" style="whiteSpace=wrap;html=1;sketch=1;curveFitting=1;jiggle=2;fontFamily=Comic Sans MS;" vertex="1" parent="1">
          <mxGeometry x="240" y="400" width="120" height="40" as="geometry" />
        </mxCell>
        <mxCell id="akxVUTVavI8f1xCOiwu0-7" value="std::runtime_error" style="whiteSpace=wrap;html=1;sketch=1;curveFitting=1;jiggle=2;fontFamily=Comic Sans MS;" vertex="1" parent="1">
          <mxGeometry x="240" y="460" width="120" height="40" as="geometry" />
        </mxCell>
        <mxCell id="akxVUTVavI8f1xCOiwu0-8" value="" style="shape=curlyBracket;whiteSpace=wrap;html=1;rounded=1;labelPosition=left;verticalLabelPosition=middle;align=right;verticalAlign=middle;sketch=1;curveFitting=1;jiggle=2;" vertex="1" parent="1">
          <mxGeometry x="210" y="160" width="20" height="340" as="geometry" />
        </mxCell>
      </root>
    </mxGraphModel>
  </diagram>
</mxfile>
